<svg id="visual" viewBox="0 0 900 600" width="900" height="600" xmlns="http://www.w3.org/2000/svg" xmlns:xlink="http://www.w3.org/1999/xlink" version="1.1"><rect x="0" y="0" width="900" height="600" fill="#171716"></rect><defs><linearGradient id="grad1_0" x1="33.3%" y1="100%" x2="100%" y2="0%"><stop offset="20%" stop-color="#171716" stop-opacity="1"></stop><stop offset="80%" stop-color="#171716" stop-opacity="1"></stop></linearGradient></defs><defs><linearGradient id="grad2_0" x1="0%" y1="100%" x2="66.7%" y2="0%"><stop offset="20%" stop-color="#171716" stop-opacity="1"></stop><stop offset="80%" stop-color="#171716" stop-opacity="1"></stop></linearGradient></defs><g transform="translate(900, 600)"><path d="M-486.7 0C-456.2 -54.7 -425.6 -109.3 -404.7 -167.6C-383.7 -225.9 -372.3 -287.8 -338 -338C-303.7 -388.2 -246.4 -426.8 -186.3 -449.7C-126.1 -472.6 -63.1 -479.7 0 -486.7L0 0Z" fill="#a59b9a"></path></g><g transform="translate(0, 0)"><path d="M486.7 0C446.7 52.5 406.7 105 381.6 158C356.4 211.1 346 264.9 317.5 317.5C288.9 370.1 242.2 421.7 186.3 449.7C130.3 477.7 65.2 482.2 0 486.7L0 0Z" fill="#a59b9a"></path></g></svg>